# xmcd
#
# Track frame offsets: 
#        150
#        12834
#        23798
#        35646
#        46923
#        57483
#        70237
#        82817
#        92778
#        104034
#        112163
#        122583
#        132913
#        149867
#        161653
#        174407
#        183316
#        195171
#        205250
#        220860
#
# Disc length: 3116 seconds
#
# Revision: 0
# Processed by: cddbd v1.4PL0 Copyright (c) Steve Scherf et al.
# Submitted via: ExactAudioCopy v0.95a4
#
DISCID=220c2a14
DTITLE=Various Artist - Country Stampede
DYEAR=1967
DGENRE=Country
TTITLE0=Don gibson/I can't stop loving you
TTITLE1=Jim ed brown/Tom dooley
TTITLE2=Bobby bare/Streets of baltimore
TTITLE3=Jerry reed/Wabash cannon
TTITLE4=Jim reeves/He'll have to go
TTITLE5=Buddy williams/Kaw-liga
TTITLE6=Chet atkins/Harper valley PTA
TTITLE7=Sons of the pioneers/San antonio rose
TTITLE8=Barry sadler/Ballad of the green berets
TTITLE9=Roger miller/It just happened that way
TTITLE10=Hank locklin/You're the reason
TTITLE11=Will carter/There's a bluebird on your window
TTITLE12=Phil harris/Deck of cards
TTITLE13=Don gibson/Oh lonesome me
TTITLE14=Porter wagoner/Carroll country accident
TTITLE15=Nev nicholls/Fickle little woman
TTITLE16=Hank snow/Green green grass of home
TTITLE17=George hamilton IV/Abeline
TTITLE18=Jimmie rodgers/Mother the queen of my heart
TTITLE19=Jim reeves/Distant drums
EXTD=
EXTT0=
EXTT1=
EXTT2=
EXTT3=
EXTT4=
EXTT5=
EXTT6=
EXTT7=
EXTT8=
EXTT9=
EXTT10=
EXTT11=
EXTT12=
EXTT13=
EXTT14=
EXTT15=
EXTT16=
EXTT17=
EXTT18=
EXTT19=
PLAYORDER=
